<svg xmlns="http://www.w3.org/2000/svg" width="100" height="100"><g fill="#3d3533"><rect width="20" height="20"/><rect width="20" height="20" fill="#4c4442" x="20"/><rect width="20" height="20" fill="#504846" x="40"/><rect width="20" height="20" fill="#8a8184" x="60"/><rect width="20" height="20" fill="#c1bbbf" x="80"/><rect width="20" height="20" fill="#48403e" y="20"/><rect width="20" height="20" fill="#4b4341" x="20" y="20"/><rect width="20" height="20" fill="#453d3b" x="40" y="20"/><rect width="20" height="20" fill="#363231" x="60" y="20"/><rect width="20" height="20" fill="#534d4f" x="80" y="20"/><rect width="20" height="20" fill="#1f1715" y="40"/><rect width="20" height="20" fill="#3c3432" x="20" y="40"/><rect width="20" height="20" fill="#251d1b" x="40" y="40"/><rect width="20" height="20" fill="#221e1d" x="60" y="40"/><rect width="20" height="20" fill="#000002" x="80" y="40"/><rect width="20" height="20" fill="#2c2422" y="60"/><rect width="20" height="20" fill="#2d2825" x="20" y="60"/><rect width="20" height="20" fill="#010000" x="40" y="60"/><rect width="20" height="20" fill="#010000" x="60" y="60"/><rect width="20" height="20" fill="#120300" x="80" y="60"/><rect width="20" height="20" fill="#3c3734" y="80"/><rect width="20" height="20" fill="#2f2725" x="20" y="80"/><rect width="20" height="20" fill="#000100" x="40" y="80"/><rect width="20" height="20" fill="#000000" x="60" y="80"/><rect width="20" height="20" fill="#000002" x="80" y="80"/></g></svg>