<svg xmlns="http://www.w3.org/2000/svg" width="100" height="100"><g fill="#8a7a7d"><rect width="20" height="20"/><rect width="20" height="20" fill="#ab796e" x="20"/><rect width="20" height="20" fill="#b8a28b" x="40"/><rect width="20" height="20" fill="#644332" x="60"/><rect width="20" height="20" fill="#422a26" x="80"/><rect width="20" height="20" fill="#82797e" y="20"/><rect width="20" height="20" fill="#61372b" x="20" y="20"/><rect width="20" height="20" fill="#b9878a" x="40" y="20"/><rect width="20" height="20" fill="#37221f" x="60" y="20"/><rect width="20" height="20" fill="#695f60" x="80" y="20"/><rect width="20" height="20" fill="#837a7f" y="40"/><rect width="20" height="20" fill="#935a46" x="20" y="40"/><rect width="20" height="20" fill="#3a1c1c" x="40" y="40"/><rect width="20" height="20" fill="#1c0e0d" x="60" y="40"/><rect width="20" height="20" fill="#90868f" x="80" y="40"/><rect width="20" height="20" fill="#6c5452" y="60"/><rect width="20" height="20" fill="#6a3428" x="20" y="60"/><rect width="20" height="20" fill="#5c3724" x="40" y="60"/><rect width="20" height="20" fill="#4a2c2a" x="60" y="60"/><rect width="20" height="20" fill="#0e0a09" x="80" y="60"/><rect width="20" height="20" fill="#120c10" y="80"/><rect width="20" height="20" fill="#703f2e" x="20" y="80"/><rect width="20" height="20" fill="#4e1f0d" x="40" y="80"/><rect width="20" height="20" fill="#211c20" x="60" y="80"/><rect width="20" height="20" fill="#6a4334" x="80" y="80"/></g></svg>